<mxfile host="app.diagrams.net" modified="2022-06-06T07:31:53.606Z" agent="5.0 (Macintosh; Intel Mac OS X 10_15_7) AppleWebKit/537.36 (KHTML, like Gecko) Chrome/91.0.4472.114 Safari/537.36" etag="ayRtxBUwjZVlVEsvchQj" version="19.0.0" type="github">
  <diagram id="qoRb17ye9yIBJ7H9PCK_" name="Page-1">
    <mxGraphModel dx="786" dy="423" grid="1" gridSize="10" guides="1" tooltips="1" connect="1" arrows="1" fold="1" page="1" pageScale="1" pageWidth="850" pageHeight="1100" math="0" shadow="0">
      <root>
        <mxCell id="0" />
        <mxCell id="1" parent="0" />
        <mxCell id="GMvcM2Gu1vgI1K2edTu--1" value="Client" style="ellipse;shape=cloud;whiteSpace=wrap;html=1;fillColor=#dae8fc;strokeColor=#6c8ebf;" parent="1" vertex="1">
          <mxGeometry x="40" y="152" width="90" height="70" as="geometry" />
        </mxCell>
        <mxCell id="GMvcM2Gu1vgI1K2edTu--3" value="" style="endArrow=classic;html=1;rounded=0;exitX=0.875;exitY=0.5;exitDx=0;exitDy=0;exitPerimeter=0;" parent="1" source="GMvcM2Gu1vgI1K2edTu--1" target="GMvcM2Gu1vgI1K2edTu--30" edge="1">
          <mxGeometry width="50" height="50" relative="1" as="geometry">
            <mxPoint x="380" y="250" as="sourcePoint" />
            <mxPoint x="210" y="187.5" as="targetPoint" />
          </mxGeometry>
        </mxCell>
        <mxCell id="GMvcM2Gu1vgI1K2edTu--6" value="Key Generation Service" style="rounded=1;whiteSpace=wrap;html=1;fillColor=#fff2cc;strokeColor=#d6b656;" parent="1" vertex="1">
          <mxGeometry x="236.75" y="322" width="110" height="40" as="geometry" />
        </mxCell>
        <mxCell id="GMvcM2Gu1vgI1K2edTu--8" value="" style="endArrow=classic;html=1;rounded=0;exitX=0.5;exitY=1;exitDx=0;exitDy=0;edgeStyle=orthogonalEdgeStyle;" parent="1" source="GMvcM2Gu1vgI1K2edTu--6" target="GMvcM2Gu1vgI1K2edTu--17" edge="1">
          <mxGeometry width="50" height="50" relative="1" as="geometry">
            <mxPoint x="380" y="360" as="sourcePoint" />
            <mxPoint x="400" y="380" as="targetPoint" />
          </mxGeometry>
        </mxCell>
        <mxCell id="GMvcM2Gu1vgI1K2edTu--9" value="" style="endArrow=classic;html=1;rounded=0;exitX=0.5;exitY=1;exitDx=0;exitDy=0;exitPerimeter=0;edgeStyle=orthogonalEdgeStyle;" parent="1" source="GMvcM2Gu1vgI1K2edTu--30" target="GMvcM2Gu1vgI1K2edTu--6" edge="1">
          <mxGeometry width="50" height="50" relative="1" as="geometry">
            <mxPoint x="400" y="212.5" as="sourcePoint" />
            <mxPoint x="420" y="290" as="targetPoint" />
          </mxGeometry>
        </mxCell>
        <mxCell id="GMvcM2Gu1vgI1K2edTu--10" value="URLs DB" style="dashed=0;outlineConnect=0;html=1;align=center;labelPosition=center;verticalLabelPosition=bottom;verticalAlign=top;shape=mxgraph.webicons.mongodb;gradientColor=#DFDEDE" parent="1" vertex="1">
          <mxGeometry x="670" y="280" width="50" height="50" as="geometry" />
        </mxCell>
        <mxCell id="GMvcM2Gu1vgI1K2edTu--15" value="Redirection Service" style="rounded=1;whiteSpace=wrap;html=1;fillColor=#fff2cc;strokeColor=#d6b656;" parent="1" vertex="1">
          <mxGeometry x="510" y="167" width="110" height="40" as="geometry" />
        </mxCell>
        <mxCell id="GMvcM2Gu1vgI1K2edTu--16" value="/assign-new-key" style="text;html=1;strokeColor=none;fillColor=none;align=center;verticalAlign=middle;whiteSpace=wrap;rounded=0;" parent="1" vertex="1">
          <mxGeometry x="220" y="280" width="60" height="30" as="geometry" />
        </mxCell>
        <mxCell id="GMvcM2Gu1vgI1K2edTu--17" value="Used &lt;br&gt;PreGenerated Keys" style="dashed=0;outlineConnect=0;html=1;align=center;labelPosition=center;verticalLabelPosition=bottom;verticalAlign=top;shape=mxgraph.webicons.mongodb;gradientColor=#DFDEDE" parent="1" vertex="1">
          <mxGeometry x="160" y="450" width="50" height="50" as="geometry" />
        </mxCell>
        <mxCell id="GMvcM2Gu1vgI1K2edTu--20" value="Unused &lt;br&gt;PreGenerated Keys" style="dashed=0;outlineConnect=0;html=1;align=center;labelPosition=center;verticalLabelPosition=bottom;verticalAlign=top;shape=mxgraph.webicons.mongodb;gradientColor=#DFDEDE" parent="1" vertex="1">
          <mxGeometry x="410" y="450" width="50" height="50" as="geometry" />
        </mxCell>
        <mxCell id="GMvcM2Gu1vgI1K2edTu--21" value="" style="endArrow=classic;html=1;rounded=0;exitX=0.5;exitY=1;exitDx=0;exitDy=0;edgeStyle=orthogonalEdgeStyle;" parent="1" source="GMvcM2Gu1vgI1K2edTu--6" target="GMvcM2Gu1vgI1K2edTu--20" edge="1">
          <mxGeometry width="50" height="50" relative="1" as="geometry">
            <mxPoint x="410" y="360" as="sourcePoint" />
            <mxPoint x="370" y="396.9230769230769" as="targetPoint" />
          </mxGeometry>
        </mxCell>
        <mxCell id="GMvcM2Gu1vgI1K2edTu--24" value="" style="endArrow=classic;html=1;rounded=0;entryX=0;entryY=0.5;entryDx=0;entryDy=0;" parent="1" source="GMvcM2Gu1vgI1K2edTu--30" target="GMvcM2Gu1vgI1K2edTu--15" edge="1">
          <mxGeometry width="50" height="50" relative="1" as="geometry">
            <mxPoint x="425" y="187.5" as="sourcePoint" />
            <mxPoint x="410" y="320" as="targetPoint" />
          </mxGeometry>
        </mxCell>
        <mxCell id="GMvcM2Gu1vgI1K2edTu--25" value="/redirection" style="text;html=1;strokeColor=none;fillColor=none;align=center;verticalAlign=middle;whiteSpace=wrap;rounded=0;" parent="1" vertex="1">
          <mxGeometry x="380" y="152" width="60" height="30" as="geometry" />
        </mxCell>
        <mxCell id="GMvcM2Gu1vgI1K2edTu--27" value="" style="aspect=fixed;html=1;points=[];align=center;image;fontSize=12;image=img/lib/azure2/databases/Cache_Redis.svg;" parent="1" vertex="1">
          <mxGeometry x="540" y="300" width="64" height="52" as="geometry" />
        </mxCell>
        <mxCell id="GMvcM2Gu1vgI1K2edTu--29" value="" style="endArrow=classic;html=1;rounded=0;entryX=0.406;entryY=-0.038;entryDx=0;entryDy=0;entryPerimeter=0;" parent="1" source="GMvcM2Gu1vgI1K2edTu--15" target="GMvcM2Gu1vgI1K2edTu--27" edge="1">
          <mxGeometry width="50" height="50" relative="1" as="geometry">
            <mxPoint x="370" y="330" as="sourcePoint" />
            <mxPoint x="568" y="320" as="targetPoint" />
          </mxGeometry>
        </mxCell>
        <mxCell id="GMvcM2Gu1vgI1K2edTu--30" value="API Gateway" style="outlineConnect=0;dashed=0;verticalLabelPosition=bottom;verticalAlign=top;align=center;html=1;shape=mxgraph.aws3.api_gateway;fillColor=#D9A741;gradientColor=none;" parent="1" vertex="1">
          <mxGeometry x="253.5" y="140.5" width="76.5" height="93" as="geometry" />
        </mxCell>
        <mxCell id="GMvcM2Gu1vgI1K2edTu--31" value="Redis Cache DB" style="text;html=1;strokeColor=none;fillColor=none;align=center;verticalAlign=middle;whiteSpace=wrap;rounded=0;" parent="1" vertex="1">
          <mxGeometry x="535" y="362" width="60" height="30" as="geometry" />
        </mxCell>
        <mxCell id="GMvcM2Gu1vgI1K2edTu--32" value="" style="endArrow=classic;html=1;rounded=0;exitX=0.5;exitY=1;exitDx=0;exitDy=0;edgeStyle=orthogonalEdgeStyle;" parent="1" source="GMvcM2Gu1vgI1K2edTu--15" target="GMvcM2Gu1vgI1K2edTu--10" edge="1">
          <mxGeometry width="50" height="50" relative="1" as="geometry">
            <mxPoint x="370" y="360" as="sourcePoint" />
            <mxPoint x="420" y="310" as="targetPoint" />
          </mxGeometry>
        </mxCell>
        <mxCell id="GMvcM2Gu1vgI1K2edTu--33" value="If not found in Redis" style="text;html=1;strokeColor=none;fillColor=none;align=center;verticalAlign=middle;whiteSpace=wrap;rounded=0;" parent="1" vertex="1">
          <mxGeometry x="630" y="207" width="80" height="26.5" as="geometry" />
        </mxCell>
        <mxCell id="2JLTb6VHwSf0zQQlDSvx-4" value="&lt;span style=&quot;background-color: rgb(255, 255, 255);&quot;&gt;Some Unused Keys&lt;/span&gt;&lt;br&gt;&lt;span style=&quot;background-color: rgb(255, 255, 255);&quot;&gt;in Redis DB&lt;/span&gt;" style="outlineConnect=0;dashed=0;verticalLabelPosition=bottom;verticalAlign=top;align=center;html=1;shape=mxgraph.aws3.redis;fillColor=#2E73B8;gradientColor=none;" vertex="1" parent="1">
          <mxGeometry x="410" y="320" width="40" height="40" as="geometry" />
        </mxCell>
        <mxCell id="2JLTb6VHwSf0zQQlDSvx-5" value="" style="endArrow=classic;html=1;rounded=0;exitX=1;exitY=0.5;exitDx=0;exitDy=0;" edge="1" parent="1" source="GMvcM2Gu1vgI1K2edTu--6" target="2JLTb6VHwSf0zQQlDSvx-4">
          <mxGeometry width="50" height="50" relative="1" as="geometry">
            <mxPoint x="380" y="360" as="sourcePoint" />
            <mxPoint x="430" y="310" as="targetPoint" />
          </mxGeometry>
        </mxCell>
      </root>
    </mxGraphModel>
  </diagram>
</mxfile>
